<svg xmlns="http://www.w3.org/2000/svg" width="153" height="65.875" viewBox="0 0 153 65.875" fill="#1867BE">
  <path d="M 53.32 16.157 L 58.476 11.92 C 52.167 4.358 42.866 -0.006 33.066 0 C 14.786 0 -0.039 14.762 0 32.906 C 0.041 50.329 13.494 64.723 30.736 65.797 C 31.435 65.875 32.29 65.875 33.066 65.875 C 42.803 65.904 52.065 61.635 58.414 54.191 L 53.257 49.955 C 48.184 55.86 40.813 59.245 33.066 59.227 C 32.766 59.232 32.466 59.232 32.166 59.227 C 17.776 58.977 6.311 47.009 6.56 32.497 C 6.809 17.985 18.676 6.422 33.067 6.673 C 40.887 6.611 48.321 10.093 53.32 16.157 Z M 30.83 11.272 L 30.83 24.223 L 24.168 24.223 L 24.168 20.669 C 22.635 21.76 21.318 23.13 20.285 24.709 L 30.83 35.202 L 30.83 54.702 C 22.516 53.896 15.381 48.388 12.441 40.504 L 18.716 38.217 C 19.786 41.074 21.679 43.542 24.152 45.305 L 24.152 37.959 L 12.239 26.15 C 15.005 17.942 22.275 12.123 30.83 11.272 Z M 44.717 42.68 C 46.5 40.563 47.662 37.987 48.072 35.241 L 41.859 35.241 L 41.859 52.939 C 39.741 53.875 37.49 54.469 35.189 54.701 L 35.189 11.263 C 46.335 12.29 54.887 21.683 54.952 32.969 C 54.965 38.099 53.155 43.064 49.85 46.963 L 44.717 42.68 Z M 41.85 20.612 C 44.606 22.538 46.634 25.348 47.605 28.584 L 41.85 28.6 L 41.85 20.612 Z M 74.931 25.828 C 74.706 26.706 73.542 28.351 70.7 28.351 C 67.857 28.351 66.04 26.69 66.04 24.122 C 66.04 21.287 67.741 19.729 70.832 19.729 C 73.48 19.729 74.536 21.217 74.715 21.796 L 74.785 22.008 L 77.968 22.008 L 77.845 21.547 C 76.788 17.733 73.364 16.926 70.677 16.926 C 65.754 16.926 62.811 19.511 62.811 23.833 C 62.811 28.352 65.754 31.155 70.483 31.155 C 72.976 31.155 77.278 30.482 78.063 25.955 L 78.125 25.588 L 75.004 25.588 L 74.931 25.828 Z M 94.471 26.635 C 94.471 29.509 92.018 31.154 87.746 31.154 L 87.669 31.122 C 86.186 31.122 81.254 30.864 80.121 27.206 L 80.028 26.909 L 83.033 25.969 L 83.149 26.212 C 83.646 27.206 84.632 28.35 87.738 28.35 C 89.726 28.35 91.217 27.723 91.217 26.862 C 91.217 26.001 89.626 25.672 88.67 25.554 L 85.563 25.124 C 82.365 24.693 80.601 23.268 80.601 21.13 C 80.601 18.421 82.87 16.925 86.985 16.925 C 92.834 16.925 93.841 19.691 94.175 20.61 L 94.176 20.613 L 94.284 20.911 L 91.288 21.891 L 91.187 21.609 C 90.884 20.77 90.123 19.659 86.915 19.659 C 85.501 19.659 83.808 19.995 83.808 20.966 C 83.808 21.217 83.808 21.788 86.457 22.117 L 89.563 22.579 C 92.864 23.08 94.471 24.412 94.471 26.635 Z M 101.669 25.053 L 103.89 20.355 L 106.12 25.053 L 101.669 25.053 Z M 107.416 27.856 L 100.318 27.856 L 98.935 30.832 L 95.526 30.832 L 102.242 17.245 L 105.536 17.245 L 112.168 30.832 L 108.774 30.832 L 107.416 27.856 Z M 70.729 44.019 L 74.613 44.019 C 73.944 45.445 72.671 46.087 70.52 46.087 C 67.74 46.087 66.009 44.427 66.009 41.765 C 66.009 38.632 68.448 37.536 70.739 37.536 C 73.519 37.536 74.171 38.937 74.45 39.541 L 74.528 39.729 L 77.704 39.729 L 77.634 39.353 C 77.082 36.463 74.387 34.733 70.435 34.733 C 64.828 34.733 62.833 38.422 62.833 41.875 C 62.707 44.045 63.666 46.134 65.388 47.442 C 66.895 48.472 68.685 49.001 70.505 48.954 C 72.175 48.992 73.817 48.522 75.219 47.607 L 75.662 48.782 L 77.736 48.782 L 77.736 41.388 L 70.746 41.388 L 70.729 44.019 Z M 110.25 41.803 C 110.25 39.093 108.417 37.528 105.358 37.528 C 102.29 37.528 100.465 39.125 100.465 41.803 C 100.465 45.726 103.89 46.156 105.358 46.156 C 106.826 46.156 110.25 45.719 110.25 41.803 Z M 105.358 34.731 C 100.302 34.731 97.289 37.425 97.289 41.944 C 97.289 43.111 97.677 48.992 105.358 48.992 C 113.037 48.992 113.418 43.142 113.418 41.944 C 113.418 37.426 110.405 34.731 105.358 34.731 Z M 123.528 46.157 C 127.085 46.157 127.573 44.442 127.573 42.586 L 127.574 42.586 L 127.574 35.053 L 130.75 35.053 L 130.75 42.767 C 130.75 46.871 128.328 48.954 123.529 48.954 C 118.73 48.954 116.298 46.87 116.298 42.767 L 116.298 35.053 L 119.466 35.053 L 119.466 42.586 C 119.466 45.727 121.416 46.157 123.528 46.157 Z M 84.321 37.777 L 88.91 37.777 C 91.31 37.777 91.729 38.271 91.729 39.289 C 91.729 40.307 91.31 40.809 88.91 40.809 L 84.321 40.809 L 84.321 37.777 Z M 89.282 35.053 C 92.063 35.053 94.896 35.545 94.896 39.234 L 94.858 39.235 C 94.948 41.261 93.489 43.021 91.496 43.291 L 95.533 48.64 L 91.65 48.64 L 87.869 43.541 L 84.32 43.541 L 84.32 48.64 L 81.159 48.64 L 81.159 35.053 L 89.282 35.053 Z M 137.64 37.85 L 142.563 37.85 C 144.225 37.85 144.97 38.069 144.97 39.322 C 144.97 40.575 144.193 40.81 142.563 40.81 L 137.616 40.81 L 137.64 37.85 Z M 134.463 35.053 L 142.026 35.053 C 144.171 35.053 148.162 35.061 148.162 39.337 C 148.162 43.612 144.171 43.612 142.026 43.612 L 137.639 43.612 L 137.639 48.64 L 134.463 48.64 L 134.463 35.053 Z M 149.854 35.351 L 149.334 35.351 L 149.334 35.053 L 150.74 35.053 L 150.74 35.351 L 150.211 35.351 L 150.211 36.815 L 149.854 36.815 L 149.854 35.351 Z M 152.177 36.815 L 152.674 35.484 L 152.658 36.815 L 153 36.815 L 153 35.053 L 152.472 35.053 L 152.022 36.259 L 151.564 35.053 L 151.035 35.053 L 151.035 36.815 L 151.384 36.815 L 151.384 35.484 L 151.881 36.815 L 152.177 36.815 Z" fill="currentColor" fill-rule="evenodd"></path>
</svg>